<svg width="240" height="78" viewBox="0 0 240 78" fill="none" xmlns="http://www.w3.org/2000/svg">
<path d="M32 0.5H224C232.56 0.5 239.5 7.43959 239.5 16V46C239.5 63.397 225.397 77.5 208 77.5H16C7.43959 77.5 0.5 70.5604 0.5 62V32C0.5 14.603 14.603 0.5 32 0.5Z" fill="#0CC0DF" fill-opacity="0.1"/>
<path d="M32 0.5H224C232.56 0.5 239.5 7.43959 239.5 16V46C239.5 63.397 225.397 77.5 208 77.5H16C7.43959 77.5 0.5 70.5604 0.5 62V32C0.5 14.603 14.603 0.5 32 0.5Z" stroke="url(#paint0_linear_1_665)"/>
<path d="M48.3977 38.6204C48.4392 35.4252 50.1717 32.4018 52.9202 30.7282C51.1863 28.2756 48.2821 26.7206 45.2607 26.6269C42.038 26.2919 38.9138 28.5369 37.2716 28.5369C35.5976 28.5369 33.0692 26.6602 30.3465 26.7157C26.7976 26.8293 23.4891 28.8277 21.7625 31.9008C18.0509 38.2654 20.8194 47.6193 24.3748 52.7639C26.1536 55.2831 28.2325 58.0972 30.9528 57.9974C33.6147 57.888 34.6089 56.3162 37.822 56.3162C41.0054 56.3162 41.9381 57.9974 44.7136 57.9339C47.5699 57.888 49.3696 55.4035 51.086 52.8605C52.3641 51.0654 53.3475 49.0815 54 46.9823C50.6432 45.5761 48.4016 42.2302 48.3977 38.6204Z" fill="#0CC0DF"/>
<path d="M43.1553 23.2436C44.7127 21.3918 45.48 19.0117 45.2942 16.6086C42.9148 16.8562 40.7169 17.9825 39.1385 19.7632C37.595 21.503 36.7917 23.8413 36.9436 26.1525C39.3238 26.1768 41.6638 25.081 43.1553 23.2436Z" fill="#0CC0DF"/>
<path d="M65.47 32.2792V22.4792H66.87V32.2792H65.47ZM69.328 32.2792V21.8912H70.672V32.2792H69.328ZM76.1361 32.3632C75.3895 32.3632 74.7268 32.1998 74.1481 31.8732C73.5695 31.5465 73.1121 31.0985 72.7761 30.5292C72.4401 29.9505 72.2721 29.2972 72.2721 28.5692C72.2721 27.8318 72.4401 27.1785 72.7761 26.6092C73.1121 26.0398 73.5695 25.5965 74.1481 25.2792C74.7268 24.9525 75.3895 24.7892 76.1361 24.7892C76.8735 24.7892 77.5315 24.9525 78.1101 25.2792C78.6981 25.5965 79.1555 26.0398 79.4821 26.6092C79.8181 27.1692 79.9861 27.8225 79.9861 28.5692C79.9861 29.3065 79.8181 29.9598 79.4821 30.5292C79.1555 31.0985 78.6981 31.5465 78.1101 31.8732C77.5315 32.1998 76.8735 32.3632 76.1361 32.3632ZM76.1361 31.1872C76.6121 31.1872 77.0368 31.0798 77.4101 30.8652C77.7928 30.6505 78.0915 30.3472 78.3061 29.9552C78.5208 29.5538 78.6281 29.0918 78.6281 28.5692C78.6281 28.0372 78.5208 27.5798 78.3061 27.1972C78.0915 26.8052 77.7928 26.5018 77.4101 26.2872C77.0368 26.0725 76.6121 25.9652 76.1361 25.9652C75.6601 25.9652 75.2355 26.0725 74.8621 26.2872C74.4888 26.5018 74.1901 26.8052 73.9661 27.1972C73.7421 27.5798 73.6301 28.0372 73.6301 28.5692C73.6301 29.0918 73.7421 29.5538 73.9661 29.9552C74.1901 30.3472 74.4888 30.6505 74.8621 30.8652C75.2355 31.0798 75.6601 31.1872 76.1361 31.1872ZM83.3058 32.2792L80.0578 24.8592H81.4578L84.3418 31.5792H83.6698L86.6098 24.8592H87.9258L84.6778 32.2792H83.3058ZM93.2737 32.2792V30.7112L93.2037 30.4172V27.7432C93.2037 27.1738 93.0357 26.7352 92.6997 26.4272C92.373 26.1098 91.8783 25.9512 91.2157 25.9512C90.777 25.9512 90.3477 26.0258 89.9277 26.1752C89.5077 26.3152 89.153 26.5065 88.8637 26.7492L88.3037 25.7412C88.6863 25.4332 89.1437 25.1998 89.6757 25.0412C90.217 24.8732 90.7817 24.7892 91.3697 24.7892C92.387 24.7892 93.171 25.0365 93.7217 25.5312C94.2723 26.0258 94.5477 26.7818 94.5477 27.7992V32.2792H93.2737ZM90.8377 32.3632C90.287 32.3632 89.8017 32.2698 89.3817 32.0832C88.971 31.8965 88.6537 31.6398 88.4297 31.3132C88.2057 30.9772 88.0937 30.5992 88.0937 30.1792C88.0937 29.7778 88.187 29.4138 88.3737 29.0872C88.5697 28.7605 88.8823 28.4992 89.3117 28.3032C89.7503 28.1072 90.3383 28.0092 91.0757 28.0092H93.4277V28.9752H91.1317C90.4597 28.9752 90.007 29.0872 89.7737 29.3112C89.5403 29.5352 89.4237 29.8058 89.4237 30.1232C89.4237 30.4872 89.5683 30.7812 89.8577 31.0052C90.147 31.2198 90.5483 31.3272 91.0617 31.3272C91.5657 31.3272 92.0043 31.2152 92.3777 30.9912C92.7603 30.7672 93.0357 30.4405 93.2037 30.0112L93.4697 30.9352C93.2923 31.3738 92.9797 31.7238 92.5317 31.9852C92.0837 32.2372 91.519 32.3632 90.8377 32.3632ZM100.717 24.7892C101.324 24.7892 101.856 24.9058 102.313 25.1392C102.78 25.3725 103.144 25.7272 103.405 26.2032C103.666 26.6792 103.797 27.2812 103.797 28.0092V32.2792H102.453V28.1632C102.453 27.4445 102.276 26.9032 101.921 26.5392C101.576 26.1752 101.086 25.9932 100.451 25.9932C99.9749 25.9932 99.5595 26.0865 99.2049 26.2732C98.8502 26.4598 98.5749 26.7352 98.3789 27.0992C98.1922 27.4632 98.0989 27.9158 98.0989 28.4572V32.2792H96.7549V24.8592H98.0429V26.8612L97.8329 26.3292C98.0755 25.8438 98.4489 25.4658 98.9529 25.1952C99.4569 24.9245 100.045 24.7892 100.717 24.7892ZM106.004 32.2792V24.8592H107.348V32.2792H106.004ZM106.676 23.4312C106.415 23.4312 106.195 23.3472 106.018 23.1792C105.85 23.0112 105.766 22.8058 105.766 22.5632C105.766 22.3112 105.85 22.1012 106.018 21.9332C106.195 21.7652 106.415 21.6812 106.676 21.6812C106.937 21.6812 107.152 21.7652 107.32 21.9332C107.497 22.0918 107.586 22.2925 107.586 22.5352C107.586 22.7872 107.502 23.0018 107.334 23.1792C107.166 23.3472 106.947 23.4312 106.676 23.4312ZM113.436 35.0792C113.081 35.0792 112.736 35.0185 112.4 34.8972C112.064 34.7852 111.775 34.6172 111.532 34.3932L112.106 33.3852C112.293 33.5625 112.498 33.6978 112.722 33.7912C112.946 33.8845 113.184 33.9312 113.436 33.9312C113.763 33.9312 114.033 33.8472 114.248 33.6792C114.463 33.5112 114.663 33.2125 114.85 32.7832L115.312 31.7612L115.452 31.5932L118.364 24.8592H119.68L116.082 33.0212C115.867 33.5438 115.625 33.9545 115.354 34.2532C115.093 34.5518 114.803 34.7618 114.486 34.8832C114.169 35.0138 113.819 35.0792 113.436 35.0792ZM115.2 32.5172L111.812 24.8592H113.212L116.096 31.4672L115.2 32.5172ZM123.776 32.3632C123.142 32.3632 122.582 32.2465 122.096 32.0132C121.62 31.7798 121.247 31.4252 120.976 30.9492C120.715 30.4638 120.584 29.8572 120.584 29.1292V24.8592H121.928V28.9752C121.928 29.7032 122.101 30.2492 122.446 30.6132C122.801 30.9772 123.296 31.1592 123.93 31.1592C124.397 31.1592 124.803 31.0658 125.148 30.8792C125.494 30.6832 125.76 30.4032 125.946 30.0392C126.133 29.6658 126.226 29.2178 126.226 28.6952V24.8592H127.57V32.2792H126.296V30.2772L126.506 30.8092C126.264 31.3038 125.9 31.6865 125.414 31.9572C124.929 32.2278 124.383 32.3632 123.776 32.3632ZM130.941 30.4872L130.969 28.7652L135.239 24.8592H136.863L133.587 28.0792L132.859 28.6952L130.941 30.4872ZM129.849 32.2792V21.8912H131.193V32.2792H129.849ZM135.519 32.2792L132.607 28.6672L133.475 27.5892L137.171 32.2792H135.519ZM138.196 32.2792V21.8912H139.54V32.2792H138.196ZM146.432 32.2792V30.7112L146.362 30.4172V27.7432C146.362 27.1738 146.194 26.7352 145.858 26.4272C145.531 26.1098 145.037 25.9512 144.374 25.9512C143.935 25.9512 143.506 26.0258 143.086 26.1752C142.666 26.3152 142.311 26.5065 142.022 26.7492L141.462 25.7412C141.845 25.4332 142.302 25.1998 142.834 25.0412C143.375 24.8732 143.94 24.7892 144.528 24.7892C145.545 24.7892 146.329 25.0365 146.88 25.5312C147.431 26.0258 147.706 26.7818 147.706 27.7992V32.2792H146.432ZM143.996 32.3632C143.445 32.3632 142.96 32.2698 142.54 32.0832C142.129 31.8965 141.812 31.6398 141.588 31.3132C141.364 30.9772 141.252 30.5992 141.252 30.1792C141.252 29.7778 141.345 29.4138 141.532 29.0872C141.728 28.7605 142.041 28.4992 142.47 28.3032C142.909 28.1072 143.497 28.0092 144.234 28.0092H146.586V28.9752H144.29C143.618 28.9752 143.165 29.0872 142.932 29.3112C142.699 29.5352 142.582 29.8058 142.582 30.1232C142.582 30.4872 142.727 30.7812 143.016 31.0052C143.305 31.2198 143.707 31.3272 144.22 31.3272C144.724 31.3272 145.163 31.2152 145.536 30.9912C145.919 30.7672 146.194 30.4405 146.362 30.0112L146.628 30.9352C146.451 31.3738 146.138 31.7238 145.69 31.9852C145.242 32.2372 144.677 32.3632 143.996 32.3632ZM153.847 32.3632C153.213 32.3632 152.639 32.2232 152.125 31.9432C151.621 31.6538 151.22 31.2292 150.921 30.6692C150.632 30.1092 150.487 29.4092 150.487 28.5692C150.487 27.7292 150.637 27.0292 150.935 26.4692C151.243 25.9092 151.649 25.4892 152.153 25.2092C152.667 24.9292 153.231 24.7892 153.847 24.7892C154.575 24.7892 155.219 24.9478 155.779 25.2652C156.339 25.5825 156.783 26.0258 157.109 26.5952C157.436 27.1552 157.599 27.8132 157.599 28.5692C157.599 29.3252 157.436 29.9878 157.109 30.5572C156.783 31.1265 156.339 31.5698 155.779 31.8872C155.219 32.2045 154.575 32.3632 153.847 32.3632ZM149.913 32.2792V21.8912H151.257V26.8332L151.117 28.5552L151.201 30.2772V32.2792H149.913ZM153.735 31.1872C154.211 31.1872 154.636 31.0798 155.009 30.8652C155.392 30.6505 155.691 30.3472 155.905 29.9552C156.129 29.5538 156.241 29.0918 156.241 28.5692C156.241 28.0372 156.129 27.5798 155.905 27.1972C155.691 26.8052 155.392 26.5018 155.009 26.2872C154.636 26.0725 154.211 25.9652 153.735 25.9652C153.269 25.9652 152.844 26.0725 152.461 26.2872C152.088 26.5018 151.789 26.8052 151.565 27.1972C151.351 27.5798 151.243 28.0372 151.243 28.5692C151.243 29.0918 151.351 29.5538 151.565 29.9552C151.789 30.3472 152.088 30.6505 152.461 30.8652C152.844 31.0798 153.269 31.1872 153.735 31.1872ZM165.834 32.3632C165.087 32.3632 164.425 32.1998 163.846 31.8732C163.267 31.5465 162.81 31.0985 162.474 30.5292C162.138 29.9505 161.97 29.2972 161.97 28.5692C161.97 27.8318 162.138 27.1785 162.474 26.6092C162.81 26.0398 163.267 25.5965 163.846 25.2792C164.425 24.9525 165.087 24.7892 165.834 24.7892C166.571 24.7892 167.229 24.9525 167.808 25.2792C168.396 25.5965 168.853 26.0398 169.18 26.6092C169.516 27.1692 169.684 27.8225 169.684 28.5692C169.684 29.3065 169.516 29.9598 169.18 30.5292C168.853 31.0985 168.396 31.5465 167.808 31.8732C167.229 32.1998 166.571 32.3632 165.834 32.3632ZM165.834 31.1872C166.31 31.1872 166.735 31.0798 167.108 30.8652C167.491 30.6505 167.789 30.3472 168.004 29.9552C168.219 29.5538 168.326 29.0918 168.326 28.5692C168.326 28.0372 168.219 27.5798 168.004 27.1972C167.789 26.8052 167.491 26.5018 167.108 26.2872C166.735 26.0725 166.31 25.9652 165.834 25.9652C165.358 25.9652 164.933 26.0725 164.56 26.2872C164.187 26.5018 163.888 26.8052 163.664 27.1972C163.44 27.5798 163.328 28.0372 163.328 28.5692C163.328 29.0918 163.44 29.5538 163.664 29.9552C163.888 30.3472 164.187 30.6505 164.56 30.8652C164.933 31.0798 165.358 31.1872 165.834 31.1872ZM171.263 32.2792V21.8912H172.607V32.2792H171.263ZM174.893 32.2792V24.8592H176.237V32.2792H174.893ZM175.565 23.4312C175.304 23.4312 175.084 23.3472 174.907 23.1792C174.739 23.0112 174.655 22.8058 174.655 22.5632C174.655 22.3112 174.739 22.1012 174.907 21.9332C175.084 21.7652 175.304 21.6812 175.565 21.6812C175.826 21.6812 176.041 21.7652 176.209 21.9332C176.386 22.0918 176.475 22.2925 176.475 22.5352C176.475 22.7872 176.391 23.0018 176.223 23.1792C176.055 23.3472 175.836 23.4312 175.565 23.4312ZM180.651 32.3632C180.035 32.3632 179.447 32.2792 178.887 32.1112C178.336 31.9432 177.902 31.7378 177.585 31.4952L178.145 30.4312C178.462 30.6458 178.854 30.8278 179.321 30.9772C179.788 31.1265 180.264 31.2012 180.749 31.2012C181.374 31.2012 181.822 31.1125 182.093 30.9352C182.373 30.7578 182.513 30.5105 182.513 30.1932C182.513 29.9598 182.429 29.7778 182.261 29.6472C182.093 29.5165 181.869 29.4185 181.589 29.3532C181.318 29.2878 181.015 29.2318 180.679 29.1852C180.343 29.1292 180.007 29.0638 179.671 28.9892C179.335 28.9052 179.027 28.7932 178.747 28.6532C178.467 28.5038 178.243 28.3032 178.075 28.0512C177.907 27.7898 177.823 27.4445 177.823 27.0152C177.823 26.5672 177.949 26.1752 178.201 25.8392C178.453 25.5032 178.808 25.2465 179.265 25.0692C179.732 24.8825 180.282 24.7892 180.917 24.7892C181.402 24.7892 181.892 24.8498 182.387 24.9712C182.891 25.0832 183.302 25.2465 183.619 25.4612L183.045 26.5252C182.709 26.3012 182.359 26.1472 181.995 26.0632C181.631 25.9792 181.267 25.9372 180.903 25.9372C180.315 25.9372 179.876 26.0352 179.587 26.2312C179.298 26.4178 179.153 26.6605 179.153 26.9592C179.153 27.2112 179.237 27.4072 179.405 27.5472C179.582 27.6778 179.806 27.7805 180.077 27.8552C180.357 27.9298 180.665 27.9952 181.001 28.0512C181.337 28.0978 181.673 28.1632 182.009 28.2472C182.345 28.3218 182.648 28.4292 182.919 28.5692C183.199 28.7092 183.423 28.9052 183.591 29.1572C183.768 29.4092 183.857 29.7452 183.857 30.1652C183.857 30.6132 183.726 31.0005 183.465 31.3272C183.204 31.6538 182.835 31.9105 182.359 32.0972C181.883 32.2745 181.314 32.3632 180.651 32.3632ZM189.219 24.7892C189.825 24.7892 190.357 24.9058 190.815 25.1392C191.281 25.3725 191.645 25.7272 191.907 26.2032C192.168 26.6792 192.299 27.2812 192.299 28.0092V32.2792H190.955V28.1632C190.955 27.4445 190.777 26.9032 190.423 26.5392C190.077 26.1752 189.587 25.9932 188.953 25.9932C188.477 25.9932 188.061 26.0865 187.707 26.2732C187.352 26.4598 187.077 26.7352 186.881 27.0992C186.694 27.4632 186.601 27.9158 186.601 28.4572V32.2792H185.257V21.8912H186.601V26.8612L186.335 26.3292C186.577 25.8438 186.951 25.4658 187.455 25.1952C187.959 24.9245 188.547 24.7892 189.219 24.7892Z" fill="#0CC0DF"/>
<path d="M111.074 43.7061V45.9971H109.638V47.4996H111.074V52.6045C111.074 54.3477 111.862 55.045 113.846 55.045C114.195 55.045 114.527 55.0035 114.817 54.9537V53.4678C114.568 53.4927 114.41 53.5093 114.137 53.5093C113.248 53.5093 112.858 53.0943 112.858 52.148V47.4996H114.817V45.9971H112.858V43.7061H111.074Z" fill="#0CC0DF"/>
<path d="M119.871 55.1695C122.511 55.1695 124.129 53.4014 124.129 50.4712C124.129 47.5577 122.502 45.7813 119.871 45.7813C117.231 45.7813 115.604 47.5577 115.604 50.4712C115.604 53.4014 117.223 55.1695 119.871 55.1695ZM119.871 53.584C118.319 53.584 117.447 52.4468 117.447 50.4712C117.447 48.5123 118.319 47.3668 119.871 47.3668C121.415 47.3668 122.295 48.5123 122.295 50.4712C122.295 52.4385 121.415 53.584 119.871 53.584Z" fill="#0CC0DF"/>
<path d="M125.514 54.9952H127.299V49.6578C127.299 48.3877 128.253 47.5328 129.607 47.5328C129.922 47.5328 130.453 47.5909 130.603 47.6407V45.8809C130.412 45.8311 130.071 45.8062 129.806 45.8062C128.627 45.8062 127.623 46.4537 127.365 47.3419H127.232V45.9556H125.514V54.9952Z" fill="#0CC0DF"/>
<path d="M135.034 47.3003C136.354 47.3003 137.217 48.2217 137.259 49.6412H132.693C132.793 48.23 133.714 47.3003 135.034 47.3003ZM137.25 52.5547C136.918 53.2603 136.179 53.6504 135.1 53.6504C133.673 53.6504 132.751 52.6461 132.693 51.0606V50.961H139.076V50.3384C139.076 47.4996 137.557 45.7813 135.042 45.7813C132.494 45.7813 130.875 47.6158 130.875 50.5044C130.875 53.3931 132.461 55.1695 135.051 55.1695C137.117 55.1695 138.562 54.1734 138.968 52.5547H137.25Z" fill="#0CC0DF"/>
<path d="M99.3699 51.657C99.5076 53.8767 101.357 55.2963 104.11 55.2963C107.053 55.2963 108.894 53.8079 108.894 51.4333C108.894 49.5664 107.844 48.5339 105.298 47.9403L103.93 47.6048C102.312 47.2262 101.658 46.7186 101.658 45.8324C101.658 44.714 102.674 43.9827 104.197 43.9827C105.642 43.9827 106.64 44.6968 106.821 45.841H108.696C108.584 43.7504 106.743 42.2792 104.222 42.2792C101.512 42.2792 99.7055 43.7504 99.7055 45.9615C99.7055 47.7854 100.729 48.8695 102.975 49.3943L104.575 49.7814C106.218 50.1686 106.941 50.7364 106.941 51.6828C106.941 52.7841 105.805 53.5842 104.257 53.5842C102.596 53.5842 101.443 52.8357 101.28 51.657H99.3699Z" fill="#0CC0DF"/>
<path d="M80.8826 45.8062C79.6541 45.8062 78.5916 46.4205 78.0437 47.4498H77.9109V45.9556H76.1927V58.0001H77.9773V53.6255H78.1185C78.5916 54.5801 79.6126 55.1446 80.8992 55.1446C83.1819 55.1446 84.6346 53.3433 84.6346 50.4712C84.6346 47.5992 83.1819 45.8062 80.8826 45.8062ZM80.3763 53.5425C78.8821 53.5425 77.9441 52.3638 77.9441 50.4795C77.9441 48.587 78.8821 47.4083 80.3846 47.4083C81.8953 47.4083 82.8001 48.5621 82.8001 50.4712C82.8001 52.3887 81.8953 53.5425 80.3763 53.5425Z" fill="#0CC0DF"/>
<path d="M90.8794 45.8062C89.6509 45.8062 88.5884 46.4205 88.0405 47.4498H87.9077V45.9556H86.1895V58.0001H87.9741V53.6255H88.1153C88.5884 54.5801 89.6094 55.1446 90.896 55.1446C93.1787 55.1446 94.6314 53.3433 94.6314 50.4712C94.6314 47.5992 93.1787 45.8062 90.8794 45.8062ZM90.3731 53.5425C88.8789 53.5425 87.9409 52.3638 87.9409 50.4795C87.9409 48.587 88.8789 47.4083 90.3814 47.4083C91.8921 47.4083 92.7969 48.5621 92.7969 50.4712C92.7969 52.3887 91.8921 53.5425 90.3731 53.5425Z" fill="#0CC0DF"/>
<path d="M72.9907 54.9952H75.0383L70.5559 42.5803H68.4824L64 54.9952H65.9788L67.1231 51.7H71.855L72.9907 54.9952ZM69.4202 44.8344H69.5665L71.3646 50.0826H67.6135L69.4202 44.8344Z" fill="#0CC0DF"/>
<defs>
<linearGradient id="paint0_linear_1_665" x1="240" y1="78" x2="8.19241" y2="-51.6748" gradientUnits="userSpaceOnUse">
<stop stop-color="#00ACCA"/>
<stop offset="1" stop-color="#00F97D"/>
</linearGradient>
</defs>
</svg>
