<svg width="240" height="78" viewBox="0 0 240 78" fill="none" xmlns="http://www.w3.org/2000/svg">
<path d="M32 0.5H224C232.56 0.5 239.5 7.43959 239.5 16V46C239.5 63.397 225.397 77.5 208 77.5H16C7.43959 77.5 0.5 70.5604 0.5 62V32C0.5 14.603 14.603 0.5 32 0.5Z" fill="#0CC0DF" fill-opacity="0.1"/>
<path d="M32 0.5H224C232.56 0.5 239.5 7.43959 239.5 16V46C239.5 63.397 225.397 77.5 208 77.5H16C7.43959 77.5 0.5 70.5604 0.5 62V32C0.5 14.603 14.603 0.5 32 0.5Z" stroke="url(#paint0_linear_1_659)"/>
<path d="M44.8008 45.5381L23.7412 57.5059C22.698 58.0974 21.7527 58.1378 21.0732 57.7285L39.0312 39.7686L44.8008 45.5381ZM38.3242 39.0615L20.3828 57.0049C20.139 56.5761 20 56.0185 20 55.3457V22.7793C20 22.1074 20.1378 21.5483 20.3818 21.1192L38.3242 39.0615ZM52.457 36.9375C54.5141 38.1067 54.5141 40.0198 52.457 41.1904L45.7031 45.0264L39.7383 39.0615L45.7002 33.0977L52.457 36.9375ZM21.0723 20.3955C21.7517 19.9862 22.6982 20.0285 23.7412 20.6211L44.7988 32.5859L39.0312 38.3545L21.0723 20.3955Z" fill="#0CC0DF"/>
<path d="M65.47 30.97V21.17H66.87V30.97H65.47ZM69.328 30.97V20.582H70.672V30.97H69.328ZM76.1361 31.054C75.3895 31.054 74.7268 30.8906 74.1481 30.564C73.5695 30.2373 73.1121 29.7893 72.7761 29.22C72.4401 28.6413 72.2721 27.988 72.2721 27.26C72.2721 26.5226 72.4401 25.8693 72.7761 25.3C73.1121 24.7306 73.5695 24.2873 74.1481 23.97C74.7268 23.6433 75.3895 23.48 76.1361 23.48C76.8735 23.48 77.5315 23.6433 78.1101 23.97C78.6981 24.2873 79.1555 24.7306 79.4821 25.3C79.8181 25.86 79.9861 26.5133 79.9861 27.26C79.9861 27.9973 79.8181 28.6506 79.4821 29.22C79.1555 29.7893 78.6981 30.2373 78.1101 30.564C77.5315 30.8906 76.8735 31.054 76.1361 31.054ZM76.1361 29.878C76.6121 29.878 77.0368 29.7706 77.4101 29.556C77.7928 29.3413 78.0915 29.038 78.3061 28.646C78.5208 28.2446 78.6281 27.7826 78.6281 27.26C78.6281 26.728 78.5208 26.2706 78.3061 25.888C78.0915 25.496 77.7928 25.1926 77.4101 24.978C77.0368 24.7633 76.6121 24.656 76.1361 24.656C75.6601 24.656 75.2355 24.7633 74.8621 24.978C74.4888 25.1926 74.1901 25.496 73.9661 25.888C73.7421 26.2706 73.6301 26.728 73.6301 27.26C73.6301 27.7826 73.7421 28.2446 73.9661 28.646C74.1901 29.038 74.4888 29.3413 74.8621 29.556C75.2355 29.7706 75.6601 29.878 76.1361 29.878ZM83.3058 30.97L80.0578 23.55H81.4578L84.3418 30.27H83.6698L86.6098 23.55H87.9258L84.6778 30.97H83.3058ZM93.2737 30.97V29.402L93.2037 29.108V26.434C93.2037 25.8646 93.0357 25.426 92.6997 25.118C92.373 24.8006 91.8783 24.642 91.2157 24.642C90.777 24.642 90.3477 24.7166 89.9277 24.866C89.5077 25.006 89.153 25.1973 88.8637 25.44L88.3037 24.432C88.6863 24.124 89.1437 23.8906 89.6757 23.732C90.217 23.564 90.7817 23.48 91.3697 23.48C92.387 23.48 93.171 23.7273 93.7217 24.222C94.2723 24.7166 94.5477 25.4726 94.5477 26.49V30.97H93.2737ZM90.8377 31.054C90.287 31.054 89.8017 30.9606 89.3817 30.774C88.971 30.5873 88.6537 30.3306 88.4297 30.004C88.2057 29.668 88.0937 29.29 88.0937 28.87C88.0937 28.4686 88.187 28.1046 88.3737 27.778C88.5697 27.4513 88.8823 27.19 89.3117 26.994C89.7503 26.798 90.3383 26.7 91.0757 26.7H93.4277V27.666H91.1317C90.4597 27.666 90.007 27.778 89.7737 28.002C89.5403 28.226 89.4237 28.4966 89.4237 28.814C89.4237 29.178 89.5683 29.472 89.8577 29.696C90.147 29.9106 90.5483 30.018 91.0617 30.018C91.5657 30.018 92.0043 29.906 92.3777 29.682C92.7603 29.458 93.0357 29.1313 93.2037 28.702L93.4697 29.626C93.2923 30.0646 92.9797 30.4146 92.5317 30.676C92.0837 30.928 91.519 31.054 90.8377 31.054ZM100.717 23.48C101.324 23.48 101.856 23.5966 102.313 23.83C102.78 24.0633 103.144 24.418 103.405 24.894C103.666 25.37 103.797 25.972 103.797 26.7V30.97H102.453V26.854C102.453 26.1353 102.276 25.594 101.921 25.23C101.576 24.866 101.086 24.684 100.451 24.684C99.9749 24.684 99.5595 24.7773 99.2049 24.964C98.8502 25.1506 98.5749 25.426 98.3789 25.79C98.1922 26.154 98.0989 26.6066 98.0989 27.148V30.97H96.7549V23.55H98.0429V25.552L97.8329 25.02C98.0755 24.5346 98.4489 24.1566 98.9529 23.886C99.4569 23.6153 100.045 23.48 100.717 23.48ZM106.004 30.97V23.55H107.348V30.97H106.004ZM106.676 22.122C106.415 22.122 106.195 22.038 106.018 21.87C105.85 21.702 105.766 21.4966 105.766 21.254C105.766 21.002 105.85 20.792 106.018 20.624C106.195 20.456 106.415 20.372 106.676 20.372C106.937 20.372 107.152 20.456 107.32 20.624C107.497 20.7826 107.586 20.9833 107.586 21.226C107.586 21.478 107.502 21.6926 107.334 21.87C107.166 22.038 106.947 22.122 106.676 22.122ZM113.436 33.77C113.081 33.77 112.736 33.7093 112.4 33.588C112.064 33.476 111.775 33.308 111.532 33.084L112.106 32.076C112.293 32.2533 112.498 32.3886 112.722 32.482C112.946 32.5753 113.184 32.622 113.436 32.622C113.763 32.622 114.033 32.538 114.248 32.37C114.463 32.202 114.663 31.9033 114.85 31.474L115.312 30.452L115.452 30.284L118.364 23.55H119.68L116.082 31.712C115.867 32.2346 115.625 32.6453 115.354 32.944C115.093 33.2426 114.803 33.4526 114.486 33.574C114.169 33.7046 113.819 33.77 113.436 33.77ZM115.2 31.208L111.812 23.55H113.212L116.096 30.158L115.2 31.208ZM123.776 31.054C123.142 31.054 122.582 30.9373 122.096 30.704C121.62 30.4706 121.247 30.116 120.976 29.64C120.715 29.1546 120.584 28.548 120.584 27.82V23.55H121.928V27.666C121.928 28.394 122.101 28.94 122.446 29.304C122.801 29.668 123.296 29.85 123.93 29.85C124.397 29.85 124.803 29.7566 125.148 29.57C125.494 29.374 125.76 29.094 125.946 28.73C126.133 28.3566 126.226 27.9086 126.226 27.386V23.55H127.57V30.97H126.296V28.968L126.506 29.5C126.264 29.9946 125.9 30.3773 125.414 30.648C124.929 30.9186 124.383 31.054 123.776 31.054ZM130.941 29.178L130.969 27.456L135.239 23.55H136.863L133.587 26.77L132.859 27.386L130.941 29.178ZM129.849 30.97V20.582H131.193V30.97H129.849ZM135.519 30.97L132.607 27.358L133.475 26.28L137.171 30.97H135.519ZM138.196 30.97V20.582H139.54V30.97H138.196ZM146.432 30.97V29.402L146.362 29.108V26.434C146.362 25.8646 146.194 25.426 145.858 25.118C145.531 24.8006 145.037 24.642 144.374 24.642C143.935 24.642 143.506 24.7166 143.086 24.866C142.666 25.006 142.311 25.1973 142.022 25.44L141.462 24.432C141.845 24.124 142.302 23.8906 142.834 23.732C143.375 23.564 143.94 23.48 144.528 23.48C145.545 23.48 146.329 23.7273 146.88 24.222C147.431 24.7166 147.706 25.4726 147.706 26.49V30.97H146.432ZM143.996 31.054C143.445 31.054 142.96 30.9606 142.54 30.774C142.129 30.5873 141.812 30.3306 141.588 30.004C141.364 29.668 141.252 29.29 141.252 28.87C141.252 28.4686 141.345 28.1046 141.532 27.778C141.728 27.4513 142.041 27.19 142.47 26.994C142.909 26.798 143.497 26.7 144.234 26.7H146.586V27.666H144.29C143.618 27.666 143.165 27.778 142.932 28.002C142.699 28.226 142.582 28.4966 142.582 28.814C142.582 29.178 142.727 29.472 143.016 29.696C143.305 29.9106 143.707 30.018 144.22 30.018C144.724 30.018 145.163 29.906 145.536 29.682C145.919 29.458 146.194 29.1313 146.362 28.702L146.628 29.626C146.451 30.0646 146.138 30.4146 145.69 30.676C145.242 30.928 144.677 31.054 143.996 31.054ZM153.847 31.054C153.213 31.054 152.639 30.914 152.125 30.634C151.621 30.3446 151.22 29.92 150.921 29.36C150.632 28.8 150.487 28.1 150.487 27.26C150.487 26.42 150.637 25.72 150.935 25.16C151.243 24.6 151.649 24.18 152.153 23.9C152.667 23.62 153.231 23.48 153.847 23.48C154.575 23.48 155.219 23.6386 155.779 23.956C156.339 24.2733 156.783 24.7166 157.109 25.286C157.436 25.846 157.599 26.504 157.599 27.26C157.599 28.016 157.436 28.6786 157.109 29.248C156.783 29.8173 156.339 30.2606 155.779 30.578C155.219 30.8953 154.575 31.054 153.847 31.054ZM149.913 30.97V20.582H151.257V25.524L151.117 27.246L151.201 28.968V30.97H149.913ZM153.735 29.878C154.211 29.878 154.636 29.7706 155.009 29.556C155.392 29.3413 155.691 29.038 155.905 28.646C156.129 28.2446 156.241 27.7826 156.241 27.26C156.241 26.728 156.129 26.2706 155.905 25.888C155.691 25.496 155.392 25.1926 155.009 24.978C154.636 24.7633 154.211 24.656 153.735 24.656C153.269 24.656 152.844 24.7633 152.461 24.978C152.088 25.1926 151.789 25.496 151.565 25.888C151.351 26.2706 151.243 26.728 151.243 27.26C151.243 27.7826 151.351 28.2446 151.565 28.646C151.789 29.038 152.088 29.3413 152.461 29.556C152.844 29.7706 153.269 29.878 153.735 29.878ZM165.834 31.054C165.087 31.054 164.425 30.8906 163.846 30.564C163.267 30.2373 162.81 29.7893 162.474 29.22C162.138 28.6413 161.97 27.988 161.97 27.26C161.97 26.5226 162.138 25.8693 162.474 25.3C162.81 24.7306 163.267 24.2873 163.846 23.97C164.425 23.6433 165.087 23.48 165.834 23.48C166.571 23.48 167.229 23.6433 167.808 23.97C168.396 24.2873 168.853 24.7306 169.18 25.3C169.516 25.86 169.684 26.5133 169.684 27.26C169.684 27.9973 169.516 28.6506 169.18 29.22C168.853 29.7893 168.396 30.2373 167.808 30.564C167.229 30.8906 166.571 31.054 165.834 31.054ZM165.834 29.878C166.31 29.878 166.735 29.7706 167.108 29.556C167.491 29.3413 167.789 29.038 168.004 28.646C168.219 28.2446 168.326 27.7826 168.326 27.26C168.326 26.728 168.219 26.2706 168.004 25.888C167.789 25.496 167.491 25.1926 167.108 24.978C166.735 24.7633 166.31 24.656 165.834 24.656C165.358 24.656 164.933 24.7633 164.56 24.978C164.187 25.1926 163.888 25.496 163.664 25.888C163.44 26.2706 163.328 26.728 163.328 27.26C163.328 27.7826 163.44 28.2446 163.664 28.646C163.888 29.038 164.187 29.3413 164.56 29.556C164.933 29.7706 165.358 29.878 165.834 29.878ZM171.263 30.97V20.582H172.607V30.97H171.263ZM174.893 30.97V23.55H176.237V30.97H174.893ZM175.565 22.122C175.304 22.122 175.084 22.038 174.907 21.87C174.739 21.702 174.655 21.4966 174.655 21.254C174.655 21.002 174.739 20.792 174.907 20.624C175.084 20.456 175.304 20.372 175.565 20.372C175.826 20.372 176.041 20.456 176.209 20.624C176.386 20.7826 176.475 20.9833 176.475 21.226C176.475 21.478 176.391 21.6926 176.223 21.87C176.055 22.038 175.836 22.122 175.565 22.122ZM180.651 31.054C180.035 31.054 179.447 30.97 178.887 30.802C178.336 30.634 177.902 30.4286 177.585 30.186L178.145 29.122C178.462 29.3366 178.854 29.5186 179.321 29.668C179.788 29.8173 180.264 29.892 180.749 29.892C181.374 29.892 181.822 29.8033 182.093 29.626C182.373 29.4486 182.513 29.2013 182.513 28.884C182.513 28.6506 182.429 28.4686 182.261 28.338C182.093 28.2073 181.869 28.1093 181.589 28.044C181.318 27.9786 181.015 27.9226 180.679 27.876C180.343 27.82 180.007 27.7546 179.671 27.68C179.335 27.596 179.027 27.484 178.747 27.344C178.467 27.1946 178.243 26.994 178.075 26.742C177.907 26.4806 177.823 26.1353 177.823 25.706C177.823 25.258 177.949 24.866 178.201 24.53C178.453 24.194 178.808 23.9373 179.265 23.76C179.732 23.5733 180.282 23.48 180.917 23.48C181.402 23.48 181.892 23.5406 182.387 23.662C182.891 23.774 183.302 23.9373 183.619 24.152L183.045 25.216C182.709 24.992 182.359 24.838 181.995 24.754C181.631 24.67 181.267 24.628 180.903 24.628C180.315 24.628 179.876 24.726 179.587 24.922C179.298 25.1086 179.153 25.3513 179.153 25.65C179.153 25.902 179.237 26.098 179.405 26.238C179.582 26.3686 179.806 26.4713 180.077 26.546C180.357 26.6206 180.665 26.686 181.001 26.742C181.337 26.7886 181.673 26.854 182.009 26.938C182.345 27.0126 182.648 27.12 182.919 27.26C183.199 27.4 183.423 27.596 183.591 27.848C183.768 28.1 183.857 28.436 183.857 28.856C183.857 29.304 183.726 29.6913 183.465 30.018C183.204 30.3446 182.835 30.6013 182.359 30.788C181.883 30.9653 181.314 31.054 180.651 31.054ZM189.219 23.48C189.825 23.48 190.357 23.5966 190.815 23.83C191.281 24.0633 191.645 24.418 191.907 24.894C192.168 25.37 192.299 25.972 192.299 26.7V30.97H190.955V26.854C190.955 26.1353 190.777 25.594 190.423 25.23C190.077 24.866 189.587 24.684 188.953 24.684C188.477 24.684 188.061 24.7773 187.707 24.964C187.352 25.1506 187.077 25.426 186.881 25.79C186.694 26.154 186.601 26.6066 186.601 27.148V30.97H185.257V20.582H186.601V25.552L186.335 25.02C186.577 24.5346 186.951 24.1566 187.455 23.886C187.959 23.6153 188.547 23.48 189.219 23.48Z" fill="#0CC0DF"/>
<path d="M91.094 45.674C88.742 45.674 86.825 47.463 86.825 49.927C86.825 52.376 88.742 54.18 91.094 54.18C93.447 54.18 95.364 52.376 95.364 49.927C95.363 47.463 93.446 45.674 91.094 45.674ZM91.094 52.506C89.805 52.506 88.694 51.443 88.694 49.928C88.694 48.397 89.806 47.35 91.094 47.35C92.383 47.35 93.494 48.397 93.494 49.928C93.494 51.442 92.383 52.506 91.094 52.506ZM81.78 45.674C79.428 45.674 77.511 47.463 77.511 49.927C77.511 52.376 79.428 54.18 81.78 54.18C84.133 54.18 86.05 52.376 86.05 49.927C86.05 47.463 84.133 45.674 81.78 45.674ZM81.78 52.506C80.491 52.506 79.38 51.443 79.38 49.928C79.38 48.397 80.492 47.35 81.78 47.35C83.069 47.35 84.18 48.397 84.18 49.928C84.181 51.442 83.069 52.506 81.78 52.506ZM70.702 46.98V48.784H75.02C74.891 49.799 74.553 50.54 74.037 51.055C73.409 51.683 72.426 52.376 70.702 52.376C68.044 52.376 65.966 50.233 65.966 47.575C65.966 44.917 68.044 42.774 70.702 42.774C72.136 42.774 73.183 43.338 73.956 44.063L75.229 42.79C74.149 41.759 72.716 40.97 70.702 40.97C67.061 40.97 64 43.934 64 47.575C64 51.216 67.061 54.18 70.702 54.18C72.667 54.18 74.15 53.535 75.309 52.327C76.501 51.135 76.872 49.459 76.872 48.106C76.872 47.688 76.84 47.301 76.775 46.979H70.702V46.98ZM116.01 48.381C115.656 47.431 114.576 45.674 112.369 45.674C110.178 45.674 108.357 47.398 108.357 49.927C108.357 52.311 110.162 54.18 112.578 54.18C114.527 54.18 115.655 52.988 116.123 52.295L114.673 51.328C114.19 52.037 113.529 52.504 112.578 52.504C111.628 52.504 110.951 52.069 110.516 51.215L116.203 48.863L116.01 48.381ZM110.21 49.799C110.162 48.155 111.483 47.318 112.434 47.318C113.175 47.318 113.803 47.689 114.013 48.22L110.21 49.799ZM105.587 53.923H107.455V41.422H105.587V53.923ZM102.525 46.625H102.461C102.042 46.125 101.236 45.674 100.222 45.674C98.095 45.674 96.146 47.543 96.146 49.944C96.146 52.328 98.095 54.181 100.222 54.181C101.237 54.181 102.042 53.73 102.461 53.215H102.525V53.827C102.525 55.454 101.655 56.324 100.254 56.324C99.11 56.324 98.401 55.503 98.111 54.81L96.484 55.487C96.951 56.614 98.191 58 100.254 58C102.445 58 104.298 56.711 104.298 53.569V45.933H102.526V46.625H102.525ZM100.383 52.506C99.094 52.506 98.015 51.426 98.015 49.944C98.015 48.445 99.094 47.35 100.383 47.35C101.655 47.35 102.654 48.445 102.654 49.944C102.654 51.426 101.655 52.506 100.383 52.506ZM124.764 41.422H120.293V53.923H122.158V49.187H124.763C126.831 49.187 128.865 47.69 128.865 45.305C128.865 42.92 126.832 41.422 124.764 41.422ZM124.812 47.447H122.158V43.162H124.812C126.207 43.162 126.999 44.317 126.999 45.305C126.999 46.273 126.207 47.447 124.812 47.447ZM136.344 45.652C134.993 45.652 133.594 46.247 133.015 47.566L134.671 48.257C135.025 47.566 135.685 47.34 136.376 47.34C137.341 47.34 138.322 47.919 138.338 48.948V49.077C138 48.884 137.276 48.595 136.392 48.595C134.607 48.595 132.789 49.576 132.789 51.409C132.789 53.082 134.253 54.159 135.893 54.159C137.147 54.159 137.839 53.596 138.273 52.936H138.337V53.901H140.139V49.108C140.14 46.89 138.482 45.652 136.344 45.652ZM136.118 52.503C135.508 52.503 134.655 52.197 134.655 51.441C134.655 50.476 135.717 50.106 136.634 50.106C137.453 50.106 137.84 50.283 138.338 50.524C138.193 51.683 137.196 52.503 136.118 52.503ZM146.701 45.925L144.562 51.345H144.498L142.278 45.925H140.268L143.597 53.5L141.699 57.714H143.645L148.776 45.925H146.701ZM129.895 53.923H131.76V41.422H129.895V53.923Z" fill="#0CC0DF"/>
<defs>
<linearGradient id="paint0_linear_1_659" x1="240" y1="78" x2="8.19241" y2="-51.6748" gradientUnits="userSpaceOnUse">
<stop stop-color="#00ACCA"/>
<stop offset="1" stop-color="#00F97D"/>
</linearGradient>
</defs>
</svg>
