<svg width="70" height="40" viewBox="0 0 70 40" fill="none" xmlns="http://www.w3.org/2000/svg">
<path d="M0 26.6667C0 11.9391 11.9391 0 26.6667 0H56.6667C64.0305 0 70 5.96954 70 13.3333C70 28.0609 58.0609 40 43.3333 40H13.3333C5.96954 40 0 34.0305 0 26.6667Z" fill="white"/>
<g clip-path="url(#clip0_1_821)">
<path d="M11.5666 16.3479C11.199 17.4995 11 18.7264 11 19.9999C11 21.2735 11.1991 22.5005 11.5667 23.6521L23 24.1739L34.4333 23.6522C34.8009 22.5005 35 21.2735 35 20C35 18.7264 34.8009 17.4995 34.4333 16.3478L23 15.8261L11.5666 16.3479Z" fill="#F0F0F0"/>
<path d="M34.4333 16.3479L23 15.8262L11.5666 16.3479C11.4577 16.6893 11.3639 17.0375 11.2853 17.3914H34.7145C34.636 17.0374 34.5423 16.6892 34.4333 16.3479Z" fill="#D80027"/>
<path d="M11.2854 22.6086C11.3639 22.9625 11.4577 23.3106 11.5667 23.6521L11.5678 23.6521L22.9999 24.1738L34.4333 23.6521C34.5422 23.3107 34.636 22.9625 34.7146 22.6086H11.2854Z" fill="#D80027"/>
<path d="M22.9999 32C28.3538 32 32.888 28.4936 34.4333 23.6521H11.5667C13.1119 28.4935 17.6462 32 22.9999 32Z" fill="#6DA544"/>
<path d="M23 8.00005C17.6462 8.00009 13.112 11.5065 11.5667 16.3479L34.4333 16.3479C32.8881 11.5064 28.3539 8 23 8.00005Z" fill="#338AF3"/>
<path d="M16.4838 12.9566C16.4838 11.8327 17.2736 10.8938 18.3285 10.6635C18.1664 10.628 17.9981 10.6089 17.8254 10.6089C16.5287 10.6089 15.4775 11.66 15.4775 12.9567C15.4775 14.2534 16.5286 15.3045 17.8254 15.3045C17.9981 15.3045 18.1663 15.2853 18.3285 15.2499C17.2737 15.0195 16.4838 14.0806 16.4838 12.9566Z" fill="#F0F0F0"/>
<path d="M19.7162 14.0238L19.8751 14.5129H20.3894L19.9733 14.8152L20.1322 15.3044L19.7162 15.0021L19.3 15.3044L19.459 14.8152L19.0428 14.5129H19.5572L19.7162 14.0238Z" fill="#F0F0F0"/>
<path d="M21.3577 14.0238L21.5166 14.5129H22.0309L21.6148 14.8152L21.7738 15.3044L21.3577 15.0021L20.9416 15.3044L21.1005 14.8152L20.6844 14.5129H21.1987L21.3577 14.0238Z" fill="#F0F0F0"/>
<path d="M22.9994 14.0238L23.1583 14.5129H23.6726L23.2565 14.8152L23.4154 15.3044L22.9994 15.0021L22.5832 15.3044L22.7422 14.8152L22.326 14.5129H22.8404L22.9994 14.0238Z" fill="#F0F0F0"/>
<path d="M24.641 14.0238L24.7999 14.5129H25.3142L24.8981 14.8152L25.0571 15.3044L24.641 15.0021L24.2248 15.3044L24.3838 14.8152L23.9677 14.5129H24.482L24.641 14.0238Z" fill="#F0F0F0"/>
<path d="M26.2825 14.0238L26.4414 14.5129H26.9557L26.5397 14.8152L26.6986 15.3044L26.2825 15.0021L25.8664 15.3044L26.0253 14.8152L25.6093 14.5129H26.1235L26.2825 14.0238Z" fill="#F0F0F0"/>
<path d="M21.3577 12.3162L21.5166 12.8053H22.0309L21.6148 13.1077L21.7738 13.5968L21.3577 13.2945L20.9416 13.5968L21.1005 13.1077L20.6844 12.8053H21.1987L21.3577 12.3162Z" fill="#F0F0F0"/>
<path d="M22.9994 12.3162L23.1583 12.8053H23.6726L23.2565 13.1077L23.4154 13.5968L22.9994 13.2945L22.5832 13.5968L22.7422 13.1077L22.326 12.8053H22.8404L22.9994 12.3162Z" fill="#F0F0F0"/>
<path d="M24.641 12.3162L24.7999 12.8053H25.3142L24.8981 13.1077L25.0571 13.5968L24.641 13.2945L24.2248 13.5968L24.3838 13.1077L23.9677 12.8053H24.482L24.641 12.3162Z" fill="#F0F0F0"/>
<path d="M26.2825 12.3162L26.4414 12.8053H26.9557L26.5397 13.1077L26.6986 13.5968L26.2825 13.2945L25.8664 13.5968L26.0253 13.1077L25.6093 12.8053H26.1235L26.2825 12.3162Z" fill="#F0F0F0"/>
<path d="M22.9994 10.6087L23.1583 11.0979H23.6726L23.2565 11.4002L23.4154 11.8894L22.9994 11.5871L22.5832 11.8894L22.7422 11.4002L22.326 11.0979H22.8404L22.9994 10.6087Z" fill="#F0F0F0"/>
<path d="M24.641 10.6087L24.7999 11.0979H25.3142L24.8981 11.4002L25.0571 11.8894L24.641 11.5871L24.2248 11.8894L24.3838 11.4002L23.9677 11.0979H24.482L24.641 10.6087Z" fill="#F0F0F0"/>
<path d="M26.2825 10.6087L26.4414 11.0979H26.9557L26.5397 11.4002L26.6986 11.8894L26.2825 11.5871L25.8664 11.8894L26.0253 11.4002L25.6093 11.0979H26.1235L26.2825 10.6087Z" fill="#F0F0F0"/>
</g>
<path d="M56.28 17.9667L51.9333 22.3133C51.42 22.8267 50.58 22.8267 50.0666 22.3133L45.72 17.9667" stroke="#0CC0DF" stroke-width="2.5" stroke-miterlimit="10" stroke-linecap="round" stroke-linejoin="round"/>
<defs>
<clipPath id="clip0_1_821">
<rect width="24" height="24" fill="white" transform="translate(11 8)"/>
</clipPath>
</defs>
</svg>
