<svg width="126" height="50" viewBox="0 0 126 50" fill="none" xmlns="http://www.w3.org/2000/svg">
<path d="M15.688 18.032V38H11.656V18.032H9.4V14H11.704C11.768 12.464 12.2 11.088 13 9.872C13.832 8.656 14.92 7.712 16.264 7.04C17.608 6.368 19.08 6.032 20.68 6.032V10.16C19.336 10.096 18.2 10.432 17.272 11.168C16.376 11.904 15.896 12.848 15.832 14H20.68V18.032H15.688ZM42.0588 38V34.352C41.0348 35.536 39.8508 36.48 38.5068 37.184C37.1628 37.888 35.7388 38.24 34.2348 38.24C32.5708 38.24 31.0028 37.936 29.5308 37.328C28.0908 36.72 26.8108 35.856 25.6908 34.736C24.5708 33.648 23.6908 32.368 23.0508 30.896C22.4428 29.392 22.1388 27.824 22.1388 26.192C22.1388 24.56 22.4428 23.008 23.0508 21.536C23.6908 20.032 24.5708 18.72 25.6908 17.6C26.8108 16.48 28.0908 15.616 29.5308 15.008C31.0028 14.4 32.5708 14.096 34.2348 14.096C35.7708 14.096 37.2108 14.416 38.5548 15.056C39.9308 15.696 41.0988 16.592 42.0588 17.744V14.576H46.3788V38H42.0588ZM34.2348 18.368C33.1788 18.368 32.1548 18.576 31.1628 18.992C30.2028 19.376 29.3708 19.92 28.6668 20.624C27.9628 21.328 27.4028 22.176 26.9868 23.168C26.6028 24.128 26.4108 25.136 26.4108 26.192C26.4108 27.248 26.6028 28.256 26.9868 29.216C27.4028 30.176 27.9628 31.008 28.6668 31.712C29.3708 32.416 30.2028 32.976 31.1628 33.392C32.1548 33.776 33.1788 33.968 34.2348 33.968C35.2908 33.968 36.2988 33.776 37.2588 33.392C38.2188 32.976 39.0508 32.416 39.7548 31.712C40.4588 31.008 41.0028 30.176 41.3868 29.216C41.8028 28.256 42.0108 27.248 42.0108 26.192C42.0108 25.136 41.8028 24.128 41.3868 23.168C41.0028 22.176 40.4588 21.328 39.7548 20.624C39.0508 19.92 38.2188 19.376 37.2588 18.992C36.2988 18.576 35.2908 18.368 34.2348 18.368ZM62.3242 21.152C62.2282 20.576 62.0202 20.032 61.7002 19.52C61.0922 18.464 59.8922 17.936 58.1002 17.936C57.1402 17.936 56.4042 18.048 55.8922 18.272C55.2202 18.528 54.7082 18.896 54.3562 19.376C54.0362 19.856 53.8762 20.384 53.8762 20.96C53.8762 21.664 54.1322 22.304 54.6442 22.88C55.1882 23.488 56.0682 23.808 57.2842 23.84C59.4282 23.936 61.1562 24.192 62.4682 24.608C63.8122 25.024 64.8362 25.744 65.5402 26.768C66.2762 27.792 66.6442 29.232 66.6442 31.088C66.6442 32.976 65.9242 34.608 64.4842 35.984C63.7802 36.656 62.9482 37.2 61.9882 37.616C61.0602 38.032 60.0842 38.24 59.0602 38.24H58.3402C55.7802 38.24 53.7162 37.504 52.1482 36.032C50.8682 34.848 50.0682 33.184 49.7482 31.04H54.0202C54.1802 31.808 54.5002 32.432 54.9802 32.912C55.7162 33.616 56.7402 33.968 58.0522 33.968C58.4042 33.968 58.6602 33.952 58.8202 33.92C59.9402 33.856 60.8202 33.552 61.4602 33.008C62.1002 32.432 62.4202 31.728 62.4202 30.896C62.4202 29.744 62.0682 28.992 61.3642 28.64C60.6602 28.288 59.3002 28.112 57.2842 28.112C54.7562 28.112 52.8202 27.312 51.4762 25.712C50.3882 24.496 49.8442 22.96 49.8442 21.104C49.8442 20.688 49.8602 20.368 49.8922 20.144C50.1482 18.064 50.9962 16.48 52.4362 15.392C53.9082 14.272 55.8442 13.712 58.2442 13.712C60.0042 13.712 61.5402 14.096 62.8522 14.864C63.7802 15.44 64.5802 16.24 65.2522 17.264C65.8922 18.288 66.3082 19.568 66.5002 21.104L66.4042 21.152H62.3242ZM81.6254 48.224C77.8174 48.224 74.5214 46.528 71.7374 43.136L75.5294 40.88C77.2574 42.896 79.2894 43.904 81.6254 43.904C82.6814 43.904 83.6894 43.696 84.6494 43.28C85.6094 42.864 86.4414 42.288 87.1454 41.552C87.8494 40.816 88.3934 39.968 88.7774 39.008C89.1934 38.048 89.4014 37.04 89.4014 35.984V34.832C87.2254 37.264 84.6174 38.48 81.5774 38.48C79.9454 38.48 78.3774 38.144 76.8734 37.472C75.4014 36.768 74.1214 35.824 73.0334 34.64C71.9454 33.456 71.0814 32.112 70.4414 30.608C69.8334 29.104 69.5294 27.552 69.5294 25.952C69.5294 24.32 69.8334 22.784 70.4414 21.344C71.0814 19.872 71.9614 18.576 73.0814 17.456C74.2014 16.368 75.4814 15.52 76.9214 14.912C78.3934 14.304 79.9454 14 81.5774 14C83.3374 14 84.9054 14.384 86.2814 15.152C87.6574 15.92 88.6974 16.784 89.4014 17.744V14.432H93.7214V35.984C93.7214 37.648 93.4014 39.216 92.7614 40.688C92.1534 42.16 91.2894 43.472 90.1694 44.624C89.0814 45.744 87.7854 46.624 86.2814 47.264C84.8094 47.904 83.2574 48.224 81.6254 48.224ZM81.5774 18.368C80.5214 18.368 79.5134 18.576 78.5534 18.992C77.5934 19.376 76.7614 19.936 76.0574 20.672C75.3534 21.408 74.7934 22.272 74.3774 23.264C73.9614 24.224 73.7534 25.232 73.7534 26.288C73.7534 27.344 73.9614 28.368 74.3774 29.36C74.7934 30.32 75.3534 31.152 76.0574 31.856C76.7614 32.56 77.5934 33.12 78.5534 33.536C79.5134 33.952 80.5214 34.16 81.5774 34.16C82.6334 34.16 83.6414 33.952 84.6014 33.536C85.5614 33.12 86.3934 32.56 87.0974 31.856C87.8014 31.152 88.3454 30.32 88.7294 29.36C89.1454 28.368 89.3534 27.344 89.3534 26.288C89.3534 25.232 89.1454 24.224 88.7294 23.264C88.3454 22.272 87.8014 21.408 87.0974 20.672C86.3934 19.936 85.5614 19.376 84.6014 18.992C83.6414 18.576 82.6334 18.368 81.5774 18.368ZM110.173 38.24C108.541 38.24 106.989 37.92 105.517 37.28C104.045 36.64 102.749 35.76 101.629 34.64C100.509 33.52 99.6294 32.224 98.9894 30.752C98.3494 29.28 98.0294 27.728 98.0294 26.096C98.0294 24.432 98.3494 22.848 98.9894 21.344C99.6294 19.84 100.509 18.528 101.629 17.408C102.749 16.288 104.045 15.424 105.517 14.816C106.989 14.176 108.541 13.856 110.173 13.856C111.837 13.856 113.421 14.176 114.925 14.816C116.429 15.424 117.741 16.288 118.861 17.408C119.981 18.528 120.845 19.84 121.453 21.344C122.093 22.848 122.413 24.432 122.413 26.096C122.413 27.728 122.093 29.28 121.453 30.752C120.845 32.224 119.981 33.52 118.861 34.64C117.741 35.76 116.429 36.64 114.925 37.28C113.421 37.92 111.837 38.24 110.173 38.24ZM110.173 18.128C108.029 18.128 106.189 18.896 104.653 20.432C103.917 21.168 103.341 22.032 102.925 23.024C102.509 24.016 102.301 25.04 102.301 26.096C102.301 27.152 102.509 28.16 102.925 29.12C103.341 30.08 103.917 30.928 104.653 31.664C105.389 32.4 106.221 32.976 107.149 33.392C108.109 33.808 109.117 34.016 110.173 34.016C111.229 34.016 112.253 33.808 113.245 33.392C114.237 32.976 115.085 32.4 115.789 31.664C116.493 30.928 117.053 30.08 117.469 29.12C117.885 28.16 118.093 27.152 118.093 26.096C118.093 25.04 117.885 24.016 117.469 23.024C117.053 22.032 116.493 21.168 115.789 20.432C115.085 19.696 114.237 19.136 113.245 18.752C112.285 18.336 111.261 18.128 110.173 18.128Z" fill="#0CC0DF"/>
<path d="M4 16.6667C4 15.1939 5.1939 14 6.66666 14H22.6666C23.403 14 24 14.597 24 15.3333C24 16.8061 22.806 18 21.3334 18H5.33334C4.59696 18 4 17.403 4 16.6667Z" fill="#0CC0DF"/>
<path d="M0 22C0 20.8954 0.89543 20 2 20H9C9.55228 20 10 20.4478 10 21C10 22.1046 9.10456 23 8 23H1C0.447716 23 0 22.5522 0 22Z" fill="#0CC0DF"/>
<path d="M18 9C18 7.34314 19.3431 6 21 6H26.8C27.4628 6 28 6.53726 28 7.2C28 8.85686 26.6568 10.2 25 10.2H19.2C18.5373 10.2 18 9.66274 18 9Z" fill="#0CC0DF"/>
</svg>
